/* XPM */
static char * texture3_xpm[] = {
"64 64 31 1",
" 	c #383838",
".	c #6C0070",
"+	c #400040",
"@	c #580058",
"#	c #840084",
"$	c #5C4020",
"%	c #9C009C",
"&	c #6C4824",
"*	c #500050",
"=	c #484848",
"-	c #2C2C2C",
";	c #480048",
">	c #543C1C",
",	c #483818",
"'	c #403018",
")	c #744C28",
"!	c #80502C",
"~	c #D40000",
"{	c #B00000",
"]	c #980000",
"^	c #382C14",
"/	c #7C0000",
"(	c #880000",
"_	c #700000",
":	c #400000",
"<	c #B400B4",
"[	c #BC0000",
"}	c #A40000",
"|	c #4C0000",
"1	c #545454",
"2	c #646464",
" ...+++++@.#@.+++++++......@+++++++++@.##.@@+++++++++++++@@@@@@@",
" $##.+++@.#..@@+++++.#%&&&$.@++++++*@.####.#.+++++++++@@@.##&&&&",
"=&$###.+@..@...@++*@#%&&$$$$@@*++**@*.###.#..@+++++++@@@.##&&&&&",
"-$$$#.@@@@@..@@+;**@#%&$#..$.@***@@*@.#.#..@@@**;**;**@@.#&&&&>>",
"-#$,.#.@@@@@@*;;**@@.##.@.#&.*@$$$#.@@.#.@@$$&$$$>>,,***.#&&&'@>",
"-#$,##..@..#####..@@@.#.##.>*@$&&&$#.@@.,,$&&&&&$$$,$,**.#.&$'.>",
"-.#$.#.#.####&..##..@@.@#..'@$&&>>$#.@',&&)&&&$>>'>''$,*@.#&$'#>",
"-##$#...#$)#&$.@...#.@@@@.@,@&$>@@>.@'>&)))))&,>,+>@@$',*@#&$'#>",
"-.#$.@.#$))&$>.@@@@..@.@@..$.$$@#.,#.'&))!!))&,+,@>..>@,**.$>'.>",
"-@.$@.##))&$$>.@@.@@@@@....>@$$.##'.'&>,!!))&$'@'@>##>.,@*@$>'#>",
"-@@'..#%)&$$>,.@..$$$>,@@@.,*,@#..'*'>&.!)&&$>'@@@##>>.,'@*@>'.@",
" @@'.##%)$$,,,.@.$&&&&$.@@@@*,.#@.';'>,.!&&$>>>'#@#>>>>,'.@*>'*@",
"~@@'.#%%.$,'.'@.@&&$.$&#.@*;;'****;;@>,#&&$>@.>>'##>,,>,'..@>'**",
"{@@'.%#&&&$'*'**$&$..#$#.*++;**@***@*>,#&$>@.#.>'$&,''#,'.#@***;",
"]@@@.#&&$....^;*$&$@#.$#.*;;*@@.##.**,,#&@>.###&$&>'...,'.#.@**;",
"/@@@.#&$.#%%#^+*$&$@#@>.@;@,,,@....*;,@#&#>@,>&&&>'.#.@.,'..*;;;",
"/@@@.#&.#%#..^+*&#>@.@,***$&&$$,@.@;;,@#&#>,&&&&&&>'..@#,,'.*;;;",
"(@@@..&.%#@@+^+*&#,@.@'*@&!!!!&$@@.;;'.#@#>&&&&>>>>'.#...,''*;;*",
"_@@@..&.%@.#@^;*##.#.@**#!&$$$$&>@@*;'..@@>&&>>^>^>'..@@#.'*+***",
":@@@@..#.@#.@^*@.##.@**@#$.<%#%$>,'@*'.#@>>&>,^@>@>^.@.@#.'*;*@@",
"-...@@.#@@..#.@.#..@**@#&<<%##>#>>,@@'..@@>&>^@.@.>^.@.@..,**...",
"=&##.@..@.@@.#.@@@***.#&)#%#&>>'>'''@,.@@@>#>^..@@^@@.@*.@,@.#))",
"=&&$#.@@@@.#@@++*@@..#&)&&&&$'@.'@'',>,@@.>#,^@@@..@.@***,>##))&",
"-$$&,.@@.###.@++$$'@.#&).#&>>@.#@''>$&$@@..#'.@@@@#.@@*;+,$&&))&",
"-$>>,.#..###.*+>$>,@.#&).#&>'@#@'',,,>>>...#'#..##.#.;+**$&))###",
"-@@,''..###.@+*&.@,@.#&)&&>''.#>,,''>>,>>'#...##..@.++;@.&))%#..",
"-@@@,,.@...@,&&&@.''.#&&.@@..##>,',@@.>>,''.#..#.@*;++;.#))%%#@.",
"-###>>@#.@@,>>$@@@'*.##&.@.&&&>'',>>#%>.>,''.@@.@**;;;@#)&))))&@",
"-@..$$@.@**,..$..#.*@.#&#%%%%%>'..,>##>.>>,'@**@*$$$@@.#&)$$$))&",
"-@.#&$#@****@.,##.@;*@##%%%###>'@%#'@.>.>>,'@***$$$@@.#%&$#<<$&&",
"-.#.$$.@.@@@..',,,';;@##%%##.$>'.##'@@>@>>,'.@,*$$#####%&#<##%%&",
" .#.>>#.#.@.#%%##.>''.#%#$&&>'>.%..'@...>>,'.@**$###..#%&#<..%%$",
"[@#.,,#@.@@#<<%$$$#,*###$&$>,>.%#.#@.###>>,'.@;*,.##.@##&#%.@##>",
"}@.#>>...@.%<%$$$$$.@###&$';,>,%#@...###>>,'.@;*,...@.##&#%.@.,,",
"_@.#&$.##@#%%$$,,.,#@##.&,*@@,,#.;@.##.@>','.@;*,@@.@@.#$.#.*.,,",
"_#@#$,.#.@##%.$,,#,.@##@,;@.@,'.@;@.##.@>'@.@***,*@@*@@.$.#.@**>",
"(@@#,,..@@.##.,,,.,@@.#.,;..@''*;@@@.#@@>'@.@*@@,******@>@...@@$",
"_@@.,.@@**.###,,,@,;*@..$+@@;'';;.@@#@@..'.#....,***@@**>+@....&",
"_@@#.@****@..#.,@*,;;*@@,+.@;'';@@;@@..@.'@..###,*@....@>*+*@@*&",
":@@.@@@****@..@,@****;**';@@#.'+;;@@.##@.@'@.##.,@.####.@@;++++$",
"-@@@....@.@*@.####.*@**@';;;.@^+;;@.##.@@@'@#.@@,,$$####..@;;++>",
" @@.#&&#.#.@.#######@.@@^;;;;;^+;@@.#.@@.@*@*@#,$$&&$$#..#.@;;+,",
"=*@.&$$>..@..##&&>>..#.*^*;;;;'+@..@@***@*;*@@.#$&$>@>.#.##.@;;'",
"-*@#$..>@@.###&&&>>@@.@;'*****,*@@@@.@@**;;*@.#%&&>,+,.###.#.@*'",
"-*@#>.#>#.##&&&$$>,@@@*+,@>>>>$##@@@...@@***@.#%>#,@+@@.#.@.@.@^",
"-*@.>.@>..##$#&@@>'@.@*+,>&&$$&%%#@@.##..@@@.#&%>#,++@.##.@@.#.^",
"-*@@,.##.##.>@#*@@'.#.*;>&!)&$&#<%&,.##.#.@.#&&#,.@+@@,$%#...#.^",
"-;*@,.##.##.@#@*.#%'#.**$!))&&&.%#$&,#.#..@.&&&#,.@@,,$&)#.#...@",
"-*;*'...@.#.@@*..%.'.@@@&)&&$&&&#%#$$.#.#..&&&&&&@,,$$&)$..#..#.",
"-*;*'*@@@@.@@@.@..'.#.@&&$>&>$&&&#%#$,....#&&$$$$&##)))$,@@...#.",
"-;+;^;***@@..*@*;+'@.@@#&>$$,>$$$.##$,*@@.&&$$;**@..$,@$,@.##.#.",
"=+++^;+;;**@@@..;;'*@,&&&&$,$>>,,$&#$,;*@@&$.>*@@.##$,.$,.##.@.@",
"[;++++;**@@@@@@@**'^,&>>,$,$$,,,,,$$$$,;*@>#.,@,$$,'$##.,##>$,@@",
"_*++^;*@@..#####.@',&>>'^,,$,,;@@..>>$$,'@,.#,.$>>,'$#..,.>$$$,@",
"|;+;;*@.###&&&&&#.@,$>';^';,,'@#..@,,,,>,;'@.,#.,;,'$.@@'#..>>,*",
"(;;;;*.#%%$&>>>>&#@,$';;^';,,'.####''^^>,*';@'#.,;''@@.@'.@.,,,*",
"};;;;@.#%%&@...>>.@,$';;;';;@'@.###^'^;,'@@*;'..';,,@@#@'@@@,,,*",
"}*;;*@.#%@>.#.#.>.@^##@@#'@#@'@.#..^^;*'^*@*;'**'*>>'@@@'@.@@$>>",
"|*;;*@.#>>'>>#.#,..^@##@@'@@@'.@.@;;^*.'^;.;*'@**@$.$'@@'.@@$!&&",
"_*;;*>&&&.#.....,.#^@@@@@'''''..@@@;^.@'^;**@'..@#>#.''@'@@$!&$$",
"|'**.&&$$&..##''''''@@#@',,,,,,'''''^'@'^;.@.###.@'''''''''&!$.'",
"-'''#&*.#>#@.',,,,,,,,'''$#$$$$>>>,,,'''^.#..###,,,>>>>$$$&!$,#.",
"=''''$.#@,''',$$&&$$$,,,,,$&)!)&&$$$$$>>,,,,'''',,,>$&&&&&&$,'''",
"12= ''''''''''''''' =221 ''''''''''''''''''' =11= '''''''''''' ="};
